# xmcd CD database file
#
# Track frame offsets:
#	150
#	24598
#	57973
#	86799
#	114781
#	139951
#	166406
#	184876
#	211901
#	263256
#
# Disc length: 3943 seconds
#
# Revision: 0
# Processed by: cddbd v1.5.1PL0 Copyright (c) Steve Scherf et al.
# Submitted via: CDex 1.51
#
DISCID=820f650a
DTITLE=Susanna Tamaro - Susanna Tamaro - Antworte mir CD1
DYEAR=2001
DGENRE=Lesung
TTITLE0=Susanna Tamaro - Antworte mir CD1
TTITLE1=Susanna Tamaro - Antworte mir CD1
TTITLE2=Susanna Tamaro - Antworte mir CD1
TTITLE3=Susanna Tamaro - Antworte mir CD1
TTITLE4=Susanna Tamaro - Antworte mir CD1
TTITLE5=Susanna Tamaro - Antworte mir CD1
TTITLE6=Susanna Tamaro - Antworte mir CD1
TTITLE7=Susanna Tamaro - Antworte mir CD1
TTITLE8=Susanna Tamaro - Antworte mir CD1
TTITLE9=Susanna Tamaro - Antworte mir CD1
EXTD=YEAR: 2001
EXTT0=
EXTT1=
EXTT2=
EXTT3=
EXTT4=
EXTT5=
EXTT6=
EXTT7=
EXTT8=
EXTT9=
PLAYORDER=
